<?xml version="1.0" encoding="UTF-8"?>
<svg version="1.1" xmlns="http://www.w3.org/2000/svg" width="97" height="99">
<path d="M0 0 C32.01 0 64.02 0 97 0 C97 32.67 97 65.34 97 99 C64.99 99 32.98 99 0 99 C0 66.33 0 33.66 0 0 Z " fill="#023A42" transform="translate(0,0)"/>
<path d="M0 0 C1.35593262 0.09873413 1.35593262 0.09873413 2.73925781 0.19946289 C5.60009427 0.4172214 8.45536571 0.67596195 11.3125 0.9375 C13.240807 1.09212687 15.16919193 1.24578515 17.09765625 1.3984375 C18.91952023 1.55440531 20.7411485 1.71315731 22.5625 1.875 C23.42576904 1.94920166 24.28903809 2.02340332 25.1784668 2.09985352 C27.23187733 2.30521546 29.27477737 2.61137912 31.3125 2.9375 C31.8075 3.9275 31.8075 3.9275 32.3125 4.9375 C31.52392578 6.75341797 31.52392578 6.75341797 30.2578125 8.9296875 C29.80792969 9.71730469 29.35804687 10.50492188 28.89453125 11.31640625 C28.17330078 12.55197266 28.17330078 12.55197266 27.4375 13.8125 C26.49830872 15.43241302 25.56325202 17.05473188 24.6328125 18.6796875 C24.21273926 19.4001123 23.79266602 20.12053711 23.35986328 20.86279297 C22.33666121 22.8896394 21.76640759 24.72040806 21.3125 26.9375 C22.01761719 27.20304687 22.72273438 27.46859375 23.44921875 27.7421875 C26.46817786 29.00248967 29.26435076 30.47707994 32.125 32.0625 C33.10082031 32.60132813 34.07664063 33.14015625 35.08203125 33.6953125 C35.81808594 34.10523438 36.55414063 34.51515625 37.3125 34.9375 C37.3125 35.9275 37.3125 36.9175 37.3125 37.9375 C33.66948721 39.69897794 30.02564919 41.45873678 26.38110352 43.21704102 C25.14651158 43.81294594 23.91212945 44.40928579 22.67797852 45.00610352 C18.56226171 46.99617561 14.44032962 48.97267898 10.3125 50.9375 C9.24467285 51.44619629 8.1768457 51.95489258 7.07666016 52.47900391 C6.09874512 52.93581543 5.12083008 53.39262695 4.11328125 53.86328125 C3.25516846 54.26587158 2.39705566 54.66846191 1.51293945 55.08325195 C-0.6875 55.9375 -0.6875 55.9375 -3.6875 55.9375 C-2.37592484 52.00277452 -0.35366553 50.81066576 2.875 48.25 C4.39287109 47.03763672 4.39287109 47.03763672 5.94140625 45.80078125 C6.72386719 45.18589844 7.50632812 44.57101563 8.3125 43.9375 C7.80203125 44.1540625 7.2915625 44.370625 6.765625 44.59375 C0.33506342 47.05651827 -5.83038035 47.88434065 -12.6875 46.9375 C-15.9375 44.9375 -15.9375 44.9375 -17.6875 42.9375 C-15.8179465 37.98546317 -13.33802774 33.43133724 -10.83203125 28.77734375 C-9.52393958 26.12066972 -9.52393958 26.12066972 -9.8203125 23.83203125 C-10.87241748 21.53351362 -12.21982063 19.6987996 -13.75 17.6875 C-15.78588218 14.68309134 -17.19581881 12.33767428 -17.5 8.6875 C-16.52527437 4.18876633 -15.48828526 3.36062725 -11.81665039 0.91845703 C-7.91618269 -0.87859367 -4.1866723 -0.39703895 0 0 Z " fill="#FBFCFC" transform="translate(39.6875,22.0625)"/>
<path d="M0 0 C4.62 0 9.24 0 14 0 C14 32.67 14 65.34 14 99 C-18.01 99 -50.02 99 -83 99 C-83 93.72 -83 88.44 -83 83 C-82.34 84.32 -81.68 85.64 -81 87 C-77.65957706 91.63947631 -75.5118517 93.58635797 -70 95 C-66.61631186 95.30620828 -66.61631186 95.30620828 -63.00415039 95.2746582 C-62.33176834 95.27976913 -61.65938629 95.28488007 -60.96662903 95.29014587 C-58.76021236 95.30396234 -56.55411084 95.30309125 -54.34765625 95.30078125 C-52.80358262 95.30467241 -51.25951005 95.30900794 -49.71543884 95.31376648 C-46.48514327 95.32121148 -43.25495703 95.32094983 -40.0246582 95.31567383 C-35.89781332 95.30987984 -31.77141735 95.32681655 -27.64464664 95.3500185 C-24.45748811 95.36479389 -21.27043677 95.36562242 -18.08325005 95.36250877 C-16.56230213 95.36302002 -15.0413479 95.36822069 -13.52043343 95.37832069 C-11.38841195 95.39074309 -9.25725318 95.38386 -7.12524414 95.37231445 C-5.91534317 95.37294388 -4.7054422 95.3735733 -3.45887756 95.3742218 C1.75934647 94.80965334 5.68123691 93.38817168 9.375 89.5 C12.04387826 85.39403344 12.12994705 82.25410222 12.14526367 77.45239258 C12.14862228 76.79180847 12.1519809 76.13122437 12.15544128 75.45062256 C12.16494412 73.26523966 12.16689444 71.07993353 12.16796875 68.89453125 C12.17118317 67.37098662 12.17454738 65.8474423 12.17805481 64.32389832 C12.18404538 61.12697637 12.18589492 57.93008146 12.18530273 54.7331543 C12.18520143 50.65238502 12.19882105 46.57179098 12.21607494 42.49106312 C12.22724147 39.34162107 12.22922047 36.19222066 12.22869301 33.04276085 C12.22986737 31.5393889 12.23425841 30.03601568 12.24202538 28.53266335 C13.00647497 16.32075434 13.00647497 16.32075434 8.6849823 5.49568176 C5.98662596 3.12476523 3.21513549 1.60756775 0 0 Z " fill="#FCFDFD" transform="translate(83,0)"/>
<path d="M0 0 C4.62 0 9.24 0 14 0 C14.26785714 11.25 14.26785714 11.25 12 15 C11.79375 13.783125 11.5875 12.56625 11.375 11.3125 C10.16687801 6.43686483 8.10381669 4.79059535 4 2 C2.68 1.34 1.36 0.68 0 0 Z " fill="#F1F4F4" transform="translate(83,0)"/>
<path d="M0 0 C4.95 0 9.9 0 15 0 C15 0.33 15 0.66 15 1 C13.1746875 1.309375 13.1746875 1.309375 11.3125 1.625 C6.41337528 2.85846757 4.69194029 4.7581547 2 9 C1.126062 12.22433127 1.126062 12.22433127 1 15 C0.67 15 0.34 15 0 15 C0 10.05 0 5.1 0 0 Z " fill="#E9EEEF" transform="translate(0,0)"/>
</svg>
